<svg width="229" height="71" viewBox="0 0 229 71" fill="none" xmlns="http://www.w3.org/2000/svg">
<g clip-path="url(#clip0)">
<path d="M0 33.2966L18.7132 16.6483L0 0V33.2966Z" fill="#20B4FF"/>
<path d="M18.7785 33.2966L37.4917 16.6483L18.7785 0V33.2966Z" fill="#20B4FF"/>
<path d="M101.437 70.5757H104.147V41.686H101.437V70.5757ZM87.5243 51.5118C82.2663 51.5118 77.988 55.886 77.988 61.2722C77.988 66.6584 82.2663 71.0327 87.5243 71.0327C91.4106 71.0327 94.8397 68.6497 96.3093 65.0589H93.5987C92.3577 67.2134 90.0716 68.617 87.5243 68.617C84.0298 68.617 81.0906 65.9729 80.5354 62.48H97.0605V61.2722C97.0605 55.886 92.7822 51.5118 87.5243 51.5118ZM80.5354 60.0644C81.0906 56.5715 83.9972 53.9274 87.5243 53.9274C91.0187 53.9274 93.9579 56.5715 94.5131 60.0644H80.5354ZM69.3989 54.9067C69.5949 54.7435 72.3708 52.6869 72.3708 48.9003C72.3708 46.7458 71.587 44.8851 70.0521 43.5793C68.5824 42.3062 66.4597 41.6207 64.0429 41.6207H55.2905V70.5104H64.5002C70.7052 70.5104 74.3956 67.3766 74.3956 62.121C74.363 57.355 69.6602 55.0046 69.3989 54.9067ZM58.0012 44.3302H64.2062C67.668 44.3302 69.5949 46.0929 69.5949 48.9656C69.5949 51.7403 67.8313 53.8948 64.4675 53.8948H57.9685V44.3302H58.0012ZM64.4675 67.8336H57.9685V56.5062H64.8267C67.0148 56.5062 71.6523 57.6814 71.6523 62.1536C71.6523 66.8543 67.766 67.8336 64.4675 67.8336ZM108.23 70.5757H110.94V41.686H108.23V70.5757ZM147.06 70.5757H149.771V51.8708H147.06V70.5757ZM116.753 70.5757H119.464V51.8708H116.753V70.5757ZM148.432 44.069C147.354 44.069 146.472 44.9504 146.472 46.0276C146.472 47.1049 147.354 47.9862 148.432 47.9862C149.51 47.9862 150.391 47.1049 150.391 46.0276C150.391 44.9504 149.51 44.069 148.432 44.069ZM135.728 51.675C132.462 51.1527 129.719 52.8828 128.086 54.7761L127.4 51.8382H125.375V70.543H128.086V58.7587C129.294 55.0046 133.311 53.8621 135.009 54.3518C136.806 54.8741 138.569 55.7881 138.569 59.6727V70.7062H141.28V59.6727C141.28 57.0285 140.594 54.9067 139.157 53.4704C138.014 52.3279 136.74 51.8382 135.728 51.675ZM118.125 44.069C117.047 44.069 116.166 44.9504 116.166 46.0276C116.166 47.1049 117.047 47.9862 118.125 47.9862C119.203 47.9862 120.085 47.1049 120.085 46.0276C120.085 44.9504 119.203 44.069 118.125 44.069Z" fill="#888888"/>
<path fill-rule="evenodd" clip-rule="evenodd" d="M72.73 0.554932L78.8698 23.4708H82.3969V28.4653H51.1429V23.4382H54.8333L58.6216 9.27079C59.9933 4.14574 64.6634 0.554932 69.9867 0.554932H72.73ZM63.4877 10.6092L60.0259 23.4708V23.5034H73.6771L68.909 5.71263C66.329 6.137 64.1735 8.03033 63.4877 10.6092Z" fill="black"/>
<path fill-rule="evenodd" clip-rule="evenodd" d="M185.532 9.33606C185.434 11.262 185.303 13.2533 182.495 14.6896C185.107 15.2446 187.001 17.5296 187.001 21.1857C187.001 24.7765 183.964 29.0855 177.792 29.0855C171.619 29.0855 168.713 24.6133 168.713 20.6308C168.713 16.6809 168.778 12.1108 168.778 12.1108C168.778 9.49928 169.464 2.83997 177.498 2.83997C184.193 2.83997 185.63 7.47537 185.532 9.33606ZM177.269 7.24687C175.31 7.24687 173.448 9.10756 173.448 11.4905V13.7103H177.073C179.49 13.7103 180.666 11.8823 180.666 10.4459C180.666 9.00963 179.261 7.24687 177.269 7.24687ZM173.416 20.4023C173.416 23.177 175.538 24.4827 177.792 24.4827C180.045 24.4827 181.645 22.9811 181.678 20.8919C181.678 19.1945 180.111 17.8561 178.184 17.8561H173.416V20.4023Z" fill="black"/>
<path fill-rule="evenodd" clip-rule="evenodd" d="M84.1931 19.0965C84.1931 24.5807 88.6673 29.0529 94.1539 29.0529C99.6405 29.0529 104.115 24.5807 104.115 19.0965C104.115 13.6124 99.6405 9.14022 94.1539 9.14022C88.6673 9.14022 84.1931 13.6124 84.1931 19.0965ZM88.9286 19.0965C88.9286 16.2239 91.28 13.8736 94.1539 13.8736C97.0605 13.8736 99.3792 16.2239 99.3792 19.0965C99.3792 21.9692 97.0278 24.3195 94.1539 24.3195C91.28 24.3195 88.9286 21.9692 88.9286 19.0965Z" fill="black"/>
<path d="M127.335 14.3958V9.69514H143.631V14.3958H137.818V28.4979H133.115V14.3958H127.335Z" fill="black"/>
<path fill-rule="evenodd" clip-rule="evenodd" d="M224.722 9.6625L224.265 12.0455C222.795 10.348 220.738 9.30342 218.223 9.30342C213.063 9.30342 208.883 13.7103 208.883 19.1292C208.883 24.548 213.063 28.9549 218.223 28.9549C220.738 28.9549 222.828 27.9103 224.265 26.2128L224.722 28.5305H229V9.6625H224.722ZM224.265 19.4556C224.101 22.165 221.848 24.3195 219.072 24.3195C216.198 24.3195 213.879 22.0018 213.879 19.1292C213.879 16.2565 216.198 13.9388 219.072 13.9388C221.815 13.9388 224.069 16.0933 224.265 18.8027V19.4556Z" fill="black"/>
<path fill-rule="evenodd" clip-rule="evenodd" d="M160.124 12.0455L160.581 9.6625H164.859V28.5305H160.581L160.124 26.2128C158.687 27.9103 156.597 28.9549 154.082 28.9549C148.922 28.9549 144.742 24.548 144.742 19.1292C144.742 13.7103 148.922 9.30342 154.082 9.30342C156.597 9.30342 158.654 10.348 160.124 12.0455ZM154.964 24.3195C157.74 24.3195 159.993 22.165 160.156 19.4556V18.8027C159.96 16.0933 157.707 13.9388 154.964 13.9388C152.09 13.9388 149.771 16.2565 149.771 19.1292C149.771 22.0018 152.09 24.3195 154.964 24.3195Z" fill="black"/>
<path d="M116.46 24.4175C113.586 24.4175 111.234 22.0671 111.234 19.1945C111.234 16.3218 113.586 13.9715 116.46 13.9715C118.256 13.9715 119.856 14.8855 120.803 16.2565H125.996C124.722 12.2087 120.966 9.23815 116.492 9.23815C111.006 9.23815 106.531 13.7103 106.531 19.1945C106.531 24.6786 111.006 29.1508 116.492 29.1508C120.966 29.1508 124.755 26.2129 125.996 22.1324H120.803C119.856 23.5034 118.256 24.4175 116.46 24.4175Z" fill="black"/>
<path d="M201.828 19.0639L208.262 9.69517H202.547L197.615 16.8768H195.035V9.66252H190.333V28.4653H195.035V21.2837H197.615L202.579 28.4979H208.295L201.828 19.0639Z" fill="black"/>
</g>
<defs>
<clipPath id="clip0">
<path d="M0 0H229V71H0V0Z" fill="white"/>
</clipPath>
</defs>
</svg>
